<?xml version="1.0" encoding="UTF-8"?><svg id="Lag_2" xmlns="http://www.w3.org/2000/svg" viewBox="0 0 243.78 57.81"><defs><style>.cls-1{stroke-width:0px;fill:#ffffff}</style></defs><g id="Lag_1-2"><path class="cls-1" d="m63.28,24.8c1.74,0,3.14-.48,4.19-1.43,1.05-.95,1.58-2.24,1.58-3.86,0-1.34-.47-2.37-1.4-3.1-.93-.73-2.15-1.09-3.65-1.09-1.66,0-3.05.48-4.16,1.43-1.11.95-1.67,2.14-1.67,3.56s.43,2.52,1.28,3.31c.85.79,2.13,1.19,3.83,1.19Z"/><path class="cls-1" d="m140.61,24.8c1.74,0,3.14-.48,4.19-1.43,1.05-.95,1.58-2.24,1.58-3.86,0-1.34-.47-2.37-1.4-3.1-.93-.73-2.15-1.09-3.65-1.09-1.66,0-3.05.48-4.16,1.43-1.11.95-1.67,2.14-1.67,3.56s.43,2.52,1.28,3.31c.85.79,2.13,1.19,3.83,1.19Z"/><path class="cls-1" d="m205.77,0c-3.61,0-6.5,2.84-8.66,8.51-2.17,5.67-3.64,12.34-4.41,20-2.96.36-5.63,1.43-8.02,3.19-2.39,1.76-4.28,4.02-5.65,6.78-1.33,2.66-2.01,5.55-2.06,8.67-.81.88-1.51,1.59-2.11,2.12-1.12.99-2.08,1.49-2.89,1.49-1.18,0-1.76-.81-1.76-2.43,0-1.13.38-3.46,1.16-6.99.89-4.13,1.34-6.99,1.34-8.57,0-2.63-1.32-3.95-3.95-3.95-1.34,0-2.81.47-4.41,1.4-1.6.93-3.23,2.49-4.89,4.68-1.66,2.19-3.16,5.03-4.5,8.51.16-1.78.36-3.28.61-4.5s.57-2.63.97-4.26c.61-2.27.91-3.73.91-4.38,0-.57-.16-.95-.49-1.16-.32-.2-.89-.3-1.7-.3-1.5,0-2.67.27-3.5.82-.83.55-1.43,1.41-1.79,2.58-1.39,4.41-2.13,9.05-2.23,13.91-1.17,1.34-2.15,2.38-2.94,3.11-1.09,1.01-2.01,1.52-2.74,1.52-.77,0-1.32-.32-1.64-.97-.32-.65-.49-1.58-.49-2.8,0-1.58.49-4.6,1.46-9.06.77-3.69,1.16-6.04,1.16-7.05,0-1.38-1.03-2.07-3.1-2.07-1.34,0-2.31.24-2.92.73s-1.09,1.38-1.46,2.67c-.63,2.12-1.15,4.4-1.58,6.81-2.4.49-4.36.77-5.83.85.97-2.35,1.46-4.44,1.46-6.26,0-1.58-.36-2.79-1.09-3.62-.73-.83-1.68-1.25-2.86-1.25-1.34,0-2.53.41-3.59,1.22-1.05.81-1.88,1.86-2.49,3.16-.61,1.3-.91,2.63-.91,4.01,0,1.62.3,3.02.91,4.19-1.22,2.15-3.04,5.03-5.47,8.63-.57-7.46-.85-13.52-.85-18.18,0-1.13-.21-1.92-.64-2.37-.43-.45-1.19-.67-2.28-.67-.89,0-1.65.21-2.28.64-.63.43-1.17,1.25-1.61,2.46-2.31,6.28-4.84,12.32-7.6,18.12-.57-7.46-.85-13.52-.85-18.18,0-1.09-.25-1.87-.76-2.34-.51-.47-1.29-.7-2.34-.7-1.38,0-2.41.26-3.1.79-.69.53-1.05,1.46-1.09,2.8v2.13c0,3.29.15,7.01.44,11.15-1.49,1.69-2.75,2.93-3.78,3.71-1.26.95-2.72,1.43-4.38,1.43-1.05,0-1.91-.35-2.55-1.06-.65-.71-1.12-1.89-1.4-3.56,4.58-6.24,8.21-12.54,10.88-18.91,2.67-6.36,4.01-11.95,4.01-16.78,0-3.36-.56-5.95-1.67-7.75-1.12-1.8-2.64-2.71-4.59-2.71-3.44,0-6.41,2.27-8.91,6.81-2.49,4.54-4.38,9.97-5.65,16.29-1.28,6.32-1.91,11.96-1.91,16.9,0,1.92.12,3.72.36,5.37-1.45,1.7-2.66,3.01-3.58,3.87-1.09,1.01-2.01,1.52-2.74,1.52-.77,0-1.32-.32-1.64-.97-.32-.65-.49-1.58-.49-2.8,0-1.58.49-4.6,1.46-9.06.77-3.69,1.16-6.04,1.16-7.05,0-1.38-1.03-2.07-3.1-2.07-1.34,0-2.31.24-2.92.73s-1.09,1.38-1.46,2.67c-.73,2.47-1.33,5.14-1.79,7.99-.39,2.41-.61,4.43-.67,6.11-1.12,1.28-2.07,2.26-2.82,2.95-1.09.99-2.03,1.49-2.8,1.49-.49,0-.88-.18-1.19-.55-.3-.36-.46-.85-.46-1.46,0-1.82.47-5.07,1.4-9.73.61-3.2.91-5.23.91-6.08,0-1.42-.99-2.13-2.98-2.13-.93,0-1.82.08-2.67.24-.2-.89-.46-1.51-.76-1.85-.3-.34-.9-.52-1.79-.52-2.8,0-5.44.88-7.93,2.64-2.49,1.76-4.49,4.09-5.99,6.99-1.42,2.74-2.15,5.63-2.23,8.67-.86.88-1.66,1.61-2.39,2.18-1.34,1.05-2.88,1.58-4.62,1.58-2.15,0-3.72-.85-4.71-2.55-.99-1.7-1.49-4.66-1.49-8.88,0-1.13.04-2.71.12-4.74h7.42c4.58,0,6.87-1.4,6.87-4.19,0-.77-.14-1.3-.43-1.58-.28-.28-.75-.43-1.4-.43h-6.81c5.27-4.66,7.9-10.13,7.9-16.41,0-2.27-.49-4.15-1.46-5.65-.97-1.5-2.31-2.25-4.01-2.25-2.31,0-4.47,1.09-6.47,3.28s-3.72,5.13-5.14,8.81c-1.42,3.69-2.47,7.76-3.16,12.22h-3.47c-1.82,0-2.74,1.14-2.74,3.4,0,.97.21,1.68.64,2.13.43.45,1.25.67,2.46.67h2.37c-.12,1.82-.18,3.63-.18,5.41,0,11.63,4.13,17.45,12.4,17.45,2.67,0,5.05-.69,7.11-2.07.87-.58,1.71-1.25,2.52-1.97.26.46.55.89.88,1.3,1.5,1.82,3.5,2.74,6.02,2.74,3.2,0,5.86-1.7,7.96-5.11.57,1.58,1.41,2.83,2.52,3.74,1.11.91,2.34,1.37,3.68,1.37,1.74,0,3.55-.71,5.41-2.13.85-.65,1.67-1.37,2.48-2.15.22.53.48,1.02.77,1.48,1.2,1.86,3.11,2.8,5.75,2.8,3.12,0,6.45-1.97,9.99-5.9.16.35.32.7.5,1.03,1.72,3.24,4.37,4.86,7.93,4.86,2.59,0,4.91-.69,6.96-2.07,1.15-.78,2.25-1.69,3.31-2.71.31,1.17.72,2.12,1.25,2.83.95,1.3,2.26,1.95,3.92,1.95,1.34,0,2.5-.34,3.5-1.03.99-.69,1.99-1.92,2.98-3.71.99-1.78,2.12-4.38,3.37-7.78l.3,4.44c.2,2.88.72,4.94,1.55,6.2.83,1.26,2.06,1.88,3.68,1.88,1.46,0,2.77-.43,3.92-1.28,1.16-.85,2.54-2.43,4.16-4.74,1.42-2.03,2.71-3.99,3.89-5.9,1.58.49,3.26.73,5.05.73,1.23,0,2.42-.12,3.56-.32-.02.45-.04.89-.04,1.3,0,3.08.6,5.55,1.79,7.42,1.2,1.86,3.11,2.8,5.75,2.8s5.26-1.33,8.1-3.97c.12.58.27,1.1.44,1.54.63,1.62,1.71,2.43,3.25,2.43,1.26,0,2.18-.33,2.77-1,.59-.67,1.1-1.96,1.55-3.86.61-2.47,1.41-4.82,2.4-7.05.99-2.23,1.97-4.02,2.92-5.38.95-1.36,1.69-2.04,2.22-2.04.45,0,.67.32.67.97,0,.97-.26,2.74-.79,5.29-.57,2.92-.85,4.94-.85,6.08,0,2.27.53,4,1.58,5.2,1.05,1.2,2.61,1.79,4.68,1.79,2.55,0,4.83-.69,6.84-2.07.87-.59,1.7-1.28,2.52-2.02.28.46.59.91.94,1.32,1.6,1.85,3.64,2.77,6.11,2.77,1.62,0,3.05-.32,4.29-.97,1.24-.65,2.62-1.92,4.16-3.83l.06.24c.57,1.91,1.19,3.2,1.85,3.89.67.69,1.63,1.03,2.89,1.03,2.23,0,3.34-.91,3.34-2.74,0-.57-.08-1.11-.24-1.64-.85-3.24-1.5-6.52-1.95-9.85,3.61-6.32,6.5-12.46,8.69-18.42,2.19-5.96,3.28-11.16,3.28-15.62,0-3.2-.58-5.59-1.73-7.17s-2.6-2.37-4.35-2.37ZM15.17,18.51c.67-2.69,1.38-4.8,2.13-6.32.75-1.52,1.43-2.28,2.04-2.28.89,0,1.34,1.2,1.34,3.59,0,2.11-.6,4.45-1.79,7.02-1.2,2.57-2.99,4.89-5.38,6.96.45-3.28,1-6.27,1.67-8.97Zm25.56,27.02c-.36,1.74-.95,3.14-1.76,4.19-.81,1.05-1.66,1.58-2.55,1.58s-1.59-.3-2.1-.91c-.51-.61-.76-1.54-.76-2.8,0-2.27.43-4.42,1.28-6.44.85-2.03,2-3.66,3.43-4.89,1.44-1.24,3.01-1.87,4.71-1.92l-2.25,11.19Zm38.84-21.95c.89-4.98,1.92-9.16,3.1-12.52,1.18-3.36,2.23-5.05,3.16-5.05,1.13,0,1.7,1.54,1.7,4.62,0,3.93-.85,8.28-2.55,13.04-1.7,4.76-3.99,9.51-6.87,14.26.08-4.58.57-9.36,1.46-14.35Zm110.36,26.81c-.75.61-1.53.91-2.34.91-2.03,0-3.04-1.48-3.04-4.44,0-2.8.73-5.35,2.19-7.66s3.3-3.79,5.53-4.44c-.04.69-.06,1.66-.06,2.92,0,3.16.2,6.22.61,9.18-1.18,1.74-2.14,2.92-2.89,3.53Zm9.76-15.87c.36-7.05,1.06-13.58,2.1-19.58,1.03-6,2.14-9,3.31-9,.36,0,.68.43.94,1.28s.4,2.05.4,3.59c0,6.08-2.25,13.98-6.75,23.71Z"/><path class="cls-1" d="m242.93,2.43c-.57-.44-1.3-.66-2.21-.66-1.01,0-1.85.29-2.53.87s-1.01,1.3-1.01,2.16.26,1.53.77,2.01c.52.48,1.29.72,2.32.72s1.91-.29,2.54-.87c.64-.58.96-1.36.96-2.34,0-.81-.28-1.44-.85-1.88Z"/><path class="cls-1" d="m239.87,9.95c-1.01,0-1.74.15-2.19.46-.46.31-.78.84-.98,1.6-.65,2.65-1.17,5.51-1.55,8.57-.67.76-1.25,1.36-1.71,1.77-.68.6-1.26.9-1.75.9-.32,0-.58-.13-.77-.39-.2-.26-.29-.62-.29-1.09,0-.74.34-2.68,1.03-5.83.61-2.75.92-4.44.92-5.05,0-.37-.11-.62-.33-.76-.22-.13-.61-.2-1.18-.2-.81,0-1.42.16-1.83.48-.41.32-.71.85-.9,1.58-.59,2.19-1.2,4.03-1.82,5.53-.63,1.5-1.22,2.62-1.77,3.35-.55.74-1.01,1.11-1.38,1.11-.27,0-.47-.1-.59-.31-.12-.21-.18-.57-.18-1.09,0-.86.25-2.58.74-5.16.15-.74.34-1.56.59-2.47.27-1.13.41-1.79.41-1.99,0-.34-.1-.6-.31-.77s-.58-.26-1.12-.26c-.96,0-1.66.16-2.1.48s-.79.85-1.03,1.58c-.57,1.72-.97,3.35-1.22,4.89-.25,1.54-.37,3.23-.37,5.07,0,1.52.35,2.8,1.05,3.82.7,1.02,1.6,1.53,2.71,1.53.96,0,1.86-.45,2.69-1.35.84-.9,1.46-2.18,1.88-3.85,0,1.65.28,2.93.83,3.83.55.91,1.42,1.36,2.6,1.36,1.55,0,2.93-.42,4.15-1.25.21-.15.42-.31.62-.47.04.55.17.97.43,1.24.29.32.83.48,1.62.48.88,0,1.54-.16,1.95-.48s.65-.87.7-1.66c.22-3.56.88-7.98,1.99-13.24.05-.34.07-.58.07-.7,0-.86-.53-1.29-1.58-1.29Z"/></g></svg>