<?xml version="1.0" encoding="UTF-8"?><svg id="Lag_2" xmlns="http://www.w3.org/2000/svg" viewBox="0 0 101 100"><defs><style>.cls-1{stroke:#000;stroke-miterlimit:10;}.cls-1,.cls-2{fill:none;}.cls-2{stroke-width:0px;}</style></defs><g id="Lag_1-2"><rect class="cls-2" x=".5" width="100" height="100"/><path class="cls-1" d="m62.47,67.5H6.98c-3.58,0-6.48-2.9-6.48-6.48v-22.04c0-3.58,2.9-6.48,6.48-6.48h87.04c3.58,0,6.48,2.9,6.48,6.48v22.04c0,3.58-2.9,6.48-6.48,6.48h-12.99"/><path class="cls-1" d="m65.67,47.39l17.59,9.72c1.56.86,1.27,3.19-.45,3.65l-5.21,1.37,7.58,11.83c.53.82.29,1.92-.54,2.45l-2.5,1.6-2.39,1.53c-.89.57-2.07.31-2.63-.58l-7.51-11.72-3.43,4.16c-1.14,1.38-3.37.67-3.5-1.11l-1.47-20.04c-.18-2.39,2.37-4.02,4.46-2.86Z"/></g></svg>